<?xml version="1.0" encoding="iso-8859-1"?>
<!-- Generator: Adobe Illustrator 19.0.0, SVG Export Plug-In . SVG Version: 6.00 Build 0)  -->
<svg version="1.1" id="Layer_1" xmlns="http://www.w3.org/2000/svg" xmlns:xlink="http://www.w3.org/1999/xlink" x="0px" y="0px"
	 viewBox="0 0 297 297" style="enable-background:new 0 0 297 297;" xml:space="preserve">
<g>
	<g>
		<g>
			<g>
				<g>
					<g>
						<circle style="fill:#79302A;" cx="148.5" cy="148.5" r="148.5"/>
					</g>
				</g>
			</g>
		</g>
	</g>
	<path style="fill:#601E1B;" d="M295.27,125.77l-60.841-60.841C181.737,70.298,128.119,66.525,74.5,67.5c-2,0-6,3-6,3
		c-9.514,56.134,4.913,110.053-5.759,163.603l57.576,60.214C129.443,296.07,138.862,297,148.5,297
		c82.014,0,148.5-66.486,148.5-148.5C297,140.771,296.408,133.18,295.27,125.77z"/>
	<g>
		<path style="fill:#F86E51;" d="M181.501,120.001c-0.472,0-0.952-0.074-1.424-0.231c-2.358-0.786-3.632-3.335-2.847-5.692
			l16.5-49.5c0.786-2.358,3.335-3.633,5.692-2.847c2.358,0.786,3.632,3.335,2.847,5.692l-16.5,49.5
			C185.141,118.809,183.385,120.001,181.501,120.001z"/>
	</g>
	<g>
		<path style="fill:#F86E51;" d="M115.499,120.001c-1.884,0-3.64-1.192-4.269-3.078l-16.5-49.5
			c-0.785-2.357,0.488-4.906,2.847-5.692c2.355-0.782,4.906,0.489,5.692,2.847l16.5,49.5c0.785,2.357-0.488,4.906-2.847,5.692
			C116.451,119.927,115.971,120.001,115.499,120.001z"/>
	</g>
	<g>
		<circle style="fill:#FFA800;" cx="148.5" cy="148.5" r="60.5"/>
	</g>
	<g>
		<path style="fill:#D18602;" d="M148.5,88c-0.447,0-0.888,0.024-1.333,0.034v120.933c0.445,0.01,0.886,0.034,1.333,0.034
			c33.413,0,60.5-27.087,60.5-60.5C209,115.087,181.913,88,148.5,88z"/>
	</g>
	<g>
		<circle style="fill:#D35400;" cx="148.5" cy="148.5" r="15.125"/>
	</g>
	<g>
		<path style="fill:#AF4104;" d="M148.5,133.375c-0.45,0-0.893,0.029-1.333,0.067v30.115c0.44,0.039,0.883,0.067,1.333,0.067
			c8.353,0,15.125-6.772,15.125-15.125S156.853,133.375,148.5,133.375z"/>
	</g>
	<g>
		<path style="fill:#F9B65F;" d="M231,235.5c-2.485,0-4.5-2.015-4.5-4.5V70.5h-156V231c0,2.485-2.015,4.5-4.5,4.5
			s-4.5-2.015-4.5-4.5V66c0-2.485,2.015-4.5,4.5-4.5h165c2.485,0,4.5,2.015,4.5,4.5v165C235.5,233.485,233.485,235.5,231,235.5z"/>
	</g>
	<g>
		<path style="fill:#E89A3D;" d="M231,61.5h-83.833v9H226.5V231c0,2.485,2.015,4.5,4.5,4.5s4.5-2.015,4.5-4.5V66
			C235.5,63.515,233.485,61.5,231,61.5z"/>
	</g>
</g>
<g>
</g>
<g>
</g>
<g>
</g>
<g>
</g>
<g>
</g>
<g>
</g>
<g>
</g>
<g>
</g>
<g>
</g>
<g>
</g>
<g>
</g>
<g>
</g>
<g>
</g>
<g>
</g>
<g>
</g>
</svg>
